<svg width="65" height="20" viewBox="0 0 65 20" fill="none" xmlns="http://www.w3.org/2000/svg">
<path d="M1.46597 20C1.03316 20 0.684119 19.8813 0.418848 19.644C0.139616 19.4206 0 19.1204 0 18.7435C0 18.4642 0.0837696 18.2339 0.251309 18.0524C0.404887 17.8709 0.60733 17.7801 0.858639 17.7801C1.09599 17.7801 1.26353 17.8499 1.36126 17.9895C1.45899 18.1291 1.53578 18.2897 1.59162 18.4712C1.66143 18.6527 1.73822 18.8133 1.82199 18.9529C1.90576 19.0925 2.03839 19.1623 2.2199 19.1623C2.48517 19.1623 2.68761 19.0087 2.82722 18.7016C2.96684 18.3944 3.03665 17.9616 3.03665 17.4031V1.80105C3.03665 1.50785 2.98778 1.31239 2.89005 1.21466C2.80628 1.11693 2.6178 1.04014 2.32461 0.984293L1.84293 0.900523C1.66143 0.858638 1.57068 0.774868 1.57068 0.649214C1.57068 0.495636 1.67539 0.418848 1.88482 0.418848H5.67539C5.88482 0.418848 5.98953 0.495636 5.98953 0.649214C5.98953 0.774868 5.89878 0.858638 5.71728 0.900523L5.2356 0.984293C4.94241 1.04014 4.74695 1.11693 4.64921 1.21466C4.56545 1.31239 4.52356 1.50785 4.52356 1.80105V14.5759C4.52356 16.2513 4.25131 17.5707 3.70681 18.534C3.1623 19.5113 2.41536 20 1.46597 20Z" fill="white"/>
<path d="M10.2302 15.6859C9.51816 15.6859 8.87593 15.4485 8.3035 14.9738C7.74504 14.4852 7.29827 13.822 6.96319 12.9843C6.62811 12.1466 6.46057 11.2112 6.46057 10.178C6.46057 9.14485 6.62811 8.2164 6.96319 7.39267C7.29827 6.56893 7.75202 5.91274 8.32444 5.42408C8.89687 4.93543 9.53212 4.6911 10.2302 4.6911C10.9422 4.6911 11.5775 4.93543 12.136 5.42408C12.7084 5.91274 13.1621 6.56893 13.4972 7.39267C13.8323 8.2164 13.9998 9.14485 13.9998 10.178C13.9998 11.2112 13.8323 12.1466 13.4972 12.9843C13.1761 13.822 12.7293 14.4852 12.1569 14.9738C11.5845 15.4485 10.9422 15.6859 10.2302 15.6859ZM10.2302 15.1623C11.6822 15.1623 12.4082 13.5009 12.4082 10.178C12.4082 6.86911 11.6822 5.21466 10.2302 5.21466C8.7782 5.21466 8.05219 6.86911 8.05219 10.178C8.05219 13.5009 8.7782 15.1623 10.2302 15.1623Z" fill="white"/>
<path d="M15.0931 15.4974C14.9256 15.4974 14.8418 15.4206 14.8418 15.267C14.8418 15.1274 14.9186 15.0436 15.0722 15.0157L15.3653 14.9738C15.6585 14.9319 15.847 14.8482 15.9308 14.7225C16.0285 14.5969 16.0774 14.3874 16.0774 14.0942V2.09424C16.0774 1.84293 16.0355 1.67539 15.9517 1.59162C15.8819 1.49389 15.7493 1.43106 15.5538 1.40314L15.114 1.34031C14.9605 1.31239 14.8837 1.22862 14.8837 1.089C14.8837 0.949389 14.9605 0.865619 15.114 0.837695C15.505 0.753926 15.8331 0.656195 16.0983 0.544502C16.3636 0.432809 16.587 0.321116 16.7685 0.209424C16.9919 0.069808 17.1594 0 17.2711 0C17.4247 0 17.5015 0.111693 17.5015 0.335078V5.88482C17.5015 6.01047 17.5434 6.08726 17.6271 6.11518C17.7109 6.12914 17.8156 6.08028 17.9413 5.96859C18.4718 5.47993 18.9395 5.14485 19.3444 4.96335C19.7493 4.78185 20.1751 4.6911 20.6219 4.6911C21.2781 4.6911 21.7947 4.91448 22.1716 5.36126C22.5486 5.79407 22.7371 6.4363 22.7371 7.28796V14.0942C22.7371 14.3874 22.779 14.5969 22.8627 14.7225C22.9605 14.8342 23.1559 14.911 23.4491 14.9529L23.9098 15.0157C24.0634 15.0436 24.1402 15.1274 24.1402 15.267C24.1402 15.4206 24.0564 15.4974 23.8889 15.4974H20.3706C20.1751 15.4974 20.0774 15.4206 20.0774 15.267C20.0774 15.1274 20.1542 15.0436 20.3078 15.0157L20.6009 14.9738C20.8941 14.9319 21.0826 14.8482 21.1664 14.7225C21.2641 14.5969 21.313 14.3874 21.313 14.0942V7.51832C21.313 6.83421 21.1873 6.35253 20.936 6.0733C20.6847 5.79407 20.3287 5.65445 19.868 5.65445C19.4212 5.65445 19.0163 5.78708 18.6533 6.05236C18.3043 6.30366 18.025 6.64572 17.8156 7.07853C17.6062 7.49738 17.5015 7.9651 17.5015 8.48168V14.0942C17.5015 14.3874 17.5434 14.5969 17.6271 14.7225C17.7249 14.8482 17.9203 14.925 18.2135 14.9529L18.779 15.0157C18.9325 15.0436 19.0093 15.1274 19.0093 15.267C19.0093 15.4206 18.9256 15.4974 18.758 15.4974H15.0931Z" fill="white"/>
<path d="M24.9931 15.4974C24.7837 15.4974 24.679 15.4206 24.679 15.267C24.679 15.1414 24.7697 15.0576 24.9512 15.0157L25.2026 14.9738C25.4957 14.918 25.6842 14.8342 25.768 14.7225C25.8657 14.5969 25.9146 14.3874 25.9146 14.0942V7.05759C25.9146 6.80628 25.8727 6.63874 25.7889 6.55497C25.7191 6.45724 25.5865 6.39441 25.391 6.36649L24.9512 6.30366C24.7697 6.2897 24.679 6.21291 24.679 6.0733C24.679 5.96161 24.7907 5.88482 25.0141 5.84293C25.4469 5.77312 25.775 5.66143 25.9984 5.50785C26.2357 5.35428 26.48 5.16579 26.7313 4.94241C26.857 4.81675 26.9617 4.75393 27.0455 4.75393C27.1711 4.75393 27.234 4.8377 27.234 5.00523V5.94764C27.234 6.0733 27.2758 6.15707 27.3596 6.19895C27.4573 6.22688 27.5621 6.18499 27.6738 6.0733C28.2322 5.54276 28.7209 5.17975 29.1397 4.98429C29.5725 4.78883 30.0263 4.6911 30.501 4.6911C31.1293 4.6911 31.6319 4.91448 32.0088 5.36126C32.3858 5.79407 32.5743 6.4363 32.5743 7.28796V14.0942C32.5743 14.3874 32.6162 14.5969 32.6999 14.7225C32.7977 14.8342 32.9931 14.911 33.2863 14.9529L33.7471 15.0157C33.9006 15.0436 33.9774 15.1274 33.9774 15.267C33.9774 15.4206 33.8937 15.4974 33.7261 15.4974H30.2078C30.0123 15.4974 29.9146 15.4206 29.9146 15.267C29.9146 15.1274 29.9914 15.0436 30.145 15.0157L30.4382 14.9738C30.7313 14.9319 30.9198 14.8482 31.0036 14.7225C31.1013 14.5969 31.1502 14.3874 31.1502 14.0942V7.51832C31.1502 6.83421 31.0245 6.35253 30.7732 6.0733C30.5219 5.79407 30.1659 5.65445 29.7052 5.65445C29.2584 5.65445 28.8535 5.78708 28.4905 6.05236C28.1415 6.30366 27.8622 6.64572 27.6528 7.07853C27.4434 7.49738 27.3387 7.9651 27.3387 8.48168V14.0942C27.3387 14.3874 27.3806 14.5969 27.4643 14.7225C27.5621 14.8482 27.7575 14.925 28.0507 14.9529L28.6162 15.0157C28.7697 15.0436 28.8465 15.1204 28.8465 15.2461C28.8465 15.4136 28.7418 15.4974 28.5324 15.4974H24.9931Z" fill="white"/>
<path d="M38.4727 15.4974C38.2632 15.4974 38.1585 15.4206 38.1585 15.267C38.1585 15.1414 38.2493 15.0576 38.4308 15.0157L38.9125 14.9319C39.3872 14.8482 39.6245 14.5759 39.6245 14.1152V1.80105C39.6245 1.50785 39.5756 1.31239 39.4779 1.21466C39.3941 1.11693 39.2057 1.04014 38.9125 0.984293L38.4308 0.900523C38.2493 0.858638 38.1585 0.774868 38.1585 0.649214C38.1585 0.495636 38.2632 0.418848 38.4727 0.418848H42.703C43.792 0.418848 44.7345 0.739965 45.5303 1.3822C46.3261 2.01047 46.9404 2.89703 47.3732 4.04188C47.806 5.18674 48.0224 6.51309 48.0224 8.02094C48.0224 9.54276 47.792 10.8621 47.3313 11.9791C46.8845 13.096 46.2493 13.9616 45.4256 14.5759C44.6018 15.1902 43.6245 15.4974 42.4936 15.4974H38.4727ZM42.5774 14.9529C43.82 14.9529 44.7624 14.3595 45.4046 13.1728C46.0608 11.986 46.3889 10.2688 46.3889 8.02094C46.3889 5.78708 46.0748 4.05585 45.4465 2.82722C44.8322 1.58464 43.9177 0.963351 42.703 0.963351C41.642 0.963351 41.1114 1.47295 41.1114 2.49215V13.4241C41.1114 13.9825 41.2231 14.3805 41.4465 14.6178C41.6838 14.8412 42.0608 14.9529 42.5774 14.9529Z" fill="white"/>
<path d="M53.1171 15.6859C52.4051 15.6859 51.7629 15.4485 51.1904 14.9738C50.632 14.4852 50.1852 13.822 49.8501 12.9843C49.515 12.1466 49.3475 11.2112 49.3475 10.178C49.3475 9.14485 49.515 8.2164 49.8501 7.39267C50.1852 6.56893 50.639 5.91274 51.2114 5.42408C51.7838 4.93543 52.4191 4.6911 53.1171 4.6911C53.8292 4.6911 54.4644 4.93543 55.0229 5.42408C55.5953 5.91274 56.0491 6.56893 56.3842 7.39267C56.7192 8.2164 56.8868 9.14485 56.8868 10.178C56.8868 11.2112 56.7192 12.1466 56.3842 12.9843C56.063 13.822 55.6163 14.4852 55.0438 14.9738C54.4714 15.4485 53.8292 15.6859 53.1171 15.6859ZM53.1171 15.1623C54.5691 15.1623 55.2952 13.5009 55.2952 10.178C55.2952 6.86911 54.5691 5.21466 53.1171 5.21466C51.6651 5.21466 50.9391 6.86911 50.9391 10.178C50.9391 13.5009 51.6651 15.1623 53.1171 15.1623Z" fill="white"/>
<path d="M61.4355 15.6859C60.7654 15.6859 60.165 15.4625 59.6345 15.0157C59.1039 14.5689 58.6781 13.9407 58.357 13.1309C58.0498 12.3072 57.8963 11.3578 57.8963 10.2827C57.8963 9.17976 58.0568 8.20942 58.3779 7.37173C58.6991 6.53403 59.1388 5.87784 59.6973 5.40314C60.2558 4.92845 60.8771 4.6911 61.5612 4.6911C62.3849 4.6911 63.0481 5.03316 63.5507 5.71728C64.0673 6.38743 64.3256 7.48342 64.3256 9.00523C64.3256 9.46597 64.1511 9.69633 63.802 9.69633H59.823C59.5437 9.69633 59.4041 9.85689 59.4041 10.178C59.4041 11.6579 59.6205 12.7679 60.0533 13.5079C60.4861 14.2478 61.0376 14.6178 61.7078 14.6178C62.2383 14.6178 62.6711 14.4293 63.0062 14.0524C63.3413 13.6754 63.6135 13.0401 63.823 12.1466C63.8649 11.993 63.9556 11.9162 64.0952 11.9162C64.2628 11.9162 64.3256 12.0558 64.2837 12.3351C64.0603 13.5777 63.7043 14.4503 63.2156 14.9529C62.727 15.4415 62.1336 15.6859 61.4355 15.6859ZM59.7601 9.17277H61.8753C62.5455 9.17277 62.8806 8.82373 62.8806 8.12565C62.8806 7.21815 62.7689 6.50611 62.5455 5.98953C62.3221 5.47295 61.987 5.21466 61.5402 5.21466C60.9957 5.21466 60.535 5.5288 60.158 6.15707C59.795 6.78534 59.5577 7.67888 59.446 8.8377C59.4181 9.06108 59.5228 9.17277 59.7601 9.17277Z" fill="white"/>
</svg>
