<svg width="65" height="21" viewBox="0 0 65 21" fill="none" xmlns="http://www.w3.org/2000/svg">
<path d="M1.46597 20.3333C1.03316 20.3333 0.684119 20.2147 0.418848 19.9773C0.139616 19.7539 0 19.4538 0 19.0768C0 18.7976 0.0837696 18.5672 0.251309 18.3857C0.404887 18.2042 0.60733 18.1134 0.858639 18.1134C1.09599 18.1134 1.26353 18.1832 1.36126 18.3229C1.45899 18.4625 1.53578 18.623 1.59162 18.8045C1.66143 18.986 1.73822 19.1466 1.82199 19.2862C1.90576 19.4258 2.03839 19.4956 2.2199 19.4956C2.48517 19.4956 2.68761 19.3421 2.82723 19.0349C2.96684 18.7277 3.03665 18.2949 3.03665 17.7365V2.13438C3.03665 1.84119 2.98778 1.64572 2.89005 1.54799C2.80628 1.45026 2.6178 1.37347 2.32461 1.31763L1.84293 1.23386C1.66143 1.19197 1.57068 1.1082 1.57068 0.982548C1.57068 0.82897 1.67539 0.752182 1.88482 0.752182H5.67539C5.88482 0.752182 5.98953 0.82897 5.98953 0.982548C5.98953 1.1082 5.89878 1.19197 5.71728 1.23386L5.2356 1.31763C4.94241 1.37347 4.74695 1.45026 4.64921 1.54799C4.56545 1.64572 4.52356 1.84119 4.52356 2.13438V14.9092C4.52356 16.5846 4.25131 17.904 3.70681 18.8674C3.1623 19.8447 2.41536 20.3333 1.46597 20.3333Z" fill="#0A0A0A"/>
<path d="M10.2302 16.0192C9.51816 16.0192 8.87593 15.7819 8.3035 15.3072C7.74504 14.8185 7.29827 14.1553 6.96319 13.3176C6.62811 12.4799 6.46057 11.5445 6.46057 10.5113C6.46057 9.47818 6.62811 8.54974 6.96319 7.726C7.29827 6.90227 7.75202 6.24607 8.32444 5.75742C8.89687 5.26876 9.53212 5.02443 10.2302 5.02443C10.9422 5.02443 11.5775 5.26876 12.136 5.75742C12.7084 6.24607 13.1621 6.90227 13.4972 7.726C13.8323 8.54974 13.9998 9.47818 13.9998 10.5113C13.9998 11.5445 13.8323 12.4799 13.4972 13.3176C13.1761 14.1553 12.7293 14.8185 12.1569 15.3072C11.5845 15.7819 10.9422 16.0192 10.2302 16.0192ZM10.2302 15.4956C11.6822 15.4956 12.4082 13.8342 12.4082 10.5113C12.4082 7.20244 11.6822 5.54799 10.2302 5.54799C8.7782 5.54799 8.05219 7.20244 8.05219 10.5113C8.05219 13.8342 8.7782 15.4956 10.2302 15.4956Z" fill="#0A0A0A"/>
<path d="M15.0931 15.8307C14.9256 15.8307 14.8418 15.7539 14.8418 15.6003C14.8418 15.4607 14.9186 15.377 15.0722 15.349L15.3653 15.3072C15.6585 15.2653 15.847 15.1815 15.9308 15.0558C16.0285 14.9302 16.0774 14.7208 16.0774 14.4276V2.42757C16.0774 2.17626 16.0355 2.00873 15.9517 1.92496C15.8819 1.82723 15.7493 1.7644 15.5538 1.73647L15.114 1.67365C14.9605 1.64572 14.8837 1.56195 14.8837 1.42234C14.8837 1.28272 14.9605 1.19895 15.114 1.17103C15.505 1.08726 15.8331 0.989529 16.0983 0.877836C16.3636 0.766143 16.587 0.65445 16.7685 0.542758C16.9919 0.403142 17.1594 0.333334 17.2711 0.333334C17.4247 0.333334 17.5015 0.445027 17.5015 0.668412V6.21815C17.5015 6.3438 17.5434 6.42059 17.6271 6.44852C17.7109 6.46248 17.8156 6.41361 17.9413 6.30192C18.4718 5.81326 18.9395 5.47819 19.3444 5.29668C19.7493 5.11518 20.1751 5.02443 20.6219 5.02443C21.2781 5.02443 21.7947 5.24782 22.1716 5.69459C22.5486 6.1274 22.7371 6.76963 22.7371 7.62129V14.4276C22.7371 14.7208 22.779 14.9302 22.8627 15.0558C22.9605 15.1675 23.1559 15.2443 23.4491 15.2862L23.9098 15.349C24.0634 15.377 24.1402 15.4607 24.1402 15.6003C24.1402 15.7539 24.0564 15.8307 23.8889 15.8307H20.3706C20.1751 15.8307 20.0774 15.7539 20.0774 15.6003C20.0774 15.4607 20.1542 15.377 20.3078 15.349L20.6009 15.3072C20.8941 15.2653 21.0826 15.1815 21.1664 15.0558C21.2641 14.9302 21.313 14.7208 21.313 14.4276V7.85166C21.313 7.16754 21.1873 6.68586 20.936 6.40663C20.6847 6.1274 20.3287 5.98778 19.868 5.98778C19.4212 5.98778 19.0163 6.12042 18.6533 6.38569C18.3043 6.637 18.025 6.97906 17.8156 7.41187C17.6062 7.83072 17.5015 8.29843 17.5015 8.81501V14.4276C17.5015 14.7208 17.5434 14.9302 17.6271 15.0558C17.7249 15.1815 17.9203 15.2583 18.2135 15.2862L18.779 15.349C18.9325 15.377 19.0093 15.4607 19.0093 15.6003C19.0093 15.7539 18.9256 15.8307 18.758 15.8307H15.0931Z" fill="#0A0A0A"/>
<path d="M24.9931 15.8307C24.7837 15.8307 24.679 15.7539 24.679 15.6003C24.679 15.4747 24.7697 15.3909 24.9512 15.349L25.2026 15.3072C25.4957 15.2513 25.6842 15.1675 25.768 15.0558C25.8657 14.9302 25.9146 14.7208 25.9146 14.4276V7.39093C25.9146 7.13962 25.8727 6.97208 25.7889 6.88831C25.7191 6.79058 25.5865 6.72775 25.391 6.69983L24.9512 6.637C24.7697 6.62304 24.679 6.54625 24.679 6.40663C24.679 6.29494 24.7907 6.21815 25.0141 6.17627C25.4469 6.10646 25.775 5.99476 25.9984 5.84119C26.2357 5.68761 26.48 5.49913 26.7313 5.27574C26.857 5.15009 26.9617 5.08726 27.0455 5.08726C27.1711 5.08726 27.234 5.17103 27.234 5.33857V6.28098C27.234 6.40663 27.2758 6.4904 27.3596 6.53229C27.4574 6.56021 27.5621 6.51832 27.6738 6.40663C28.2322 5.87609 28.7209 5.51309 29.1397 5.31763C29.5725 5.12216 30.0263 5.02443 30.501 5.02443C31.1293 5.02443 31.6319 5.24782 32.0088 5.69459C32.3858 6.1274 32.5743 6.76963 32.5743 7.62129V14.4276C32.5743 14.7208 32.6162 14.9302 32.6999 15.0558C32.7977 15.1675 32.9931 15.2443 33.2863 15.2862L33.7471 15.349C33.9006 15.377 33.9774 15.4607 33.9774 15.6003C33.9774 15.7539 33.8937 15.8307 33.7261 15.8307H30.2078C30.0123 15.8307 29.9146 15.7539 29.9146 15.6003C29.9146 15.4607 29.9914 15.377 30.145 15.349L30.4382 15.3072C30.7313 15.2653 30.9198 15.1815 31.0036 15.0558C31.1013 14.9302 31.1502 14.7208 31.1502 14.4276V7.85166C31.1502 7.16754 31.0245 6.68586 30.7732 6.40663C30.5219 6.1274 30.1659 5.98778 29.7052 5.98778C29.2584 5.98778 28.8535 6.12042 28.4905 6.38569C28.1415 6.637 27.8622 6.97906 27.6528 7.41187C27.4434 7.83072 27.3387 8.29843 27.3387 8.81501V14.4276C27.3387 14.7208 27.3806 14.9302 27.4643 15.0558C27.5621 15.1815 27.7575 15.2583 28.0507 15.2862L28.6162 15.349C28.7697 15.377 28.8465 15.4538 28.8465 15.5794C28.8465 15.7469 28.7418 15.8307 28.5324 15.8307H24.9931Z" fill="#0A0A0A"/>
<path d="M38.4727 15.8307C38.2632 15.8307 38.1585 15.7539 38.1585 15.6003C38.1585 15.4747 38.2493 15.3909 38.4308 15.349L38.9125 15.2653C39.3872 15.1815 39.6245 14.9092 39.6245 14.4485V2.13438C39.6245 1.84119 39.5756 1.64572 39.4779 1.54799C39.3941 1.45026 39.2057 1.37347 38.9125 1.31763L38.4308 1.23386C38.2493 1.19197 38.1585 1.1082 38.1585 0.982548C38.1585 0.82897 38.2632 0.752182 38.4727 0.752182H42.703C43.792 0.752182 44.7345 1.0733 45.5303 1.71553C46.3261 2.3438 46.9404 3.23037 47.3732 4.37522C47.806 5.52007 48.0224 6.84642 48.0224 8.35428C48.0224 9.87609 47.792 11.1955 47.3313 12.3124C46.8845 13.4293 46.2493 14.2949 45.4256 14.9092C44.6018 15.5236 43.6245 15.8307 42.4936 15.8307H38.4727ZM42.5774 15.2862C43.82 15.2862 44.7624 14.6928 45.4046 13.5061C46.0608 12.3194 46.3889 10.6021 46.3889 8.35428C46.3889 6.12042 46.0748 4.38918 45.4465 3.16056C44.8322 1.91798 43.9177 1.29668 42.703 1.29668C41.642 1.29668 41.1114 1.80628 41.1114 2.82548V13.7574C41.1114 14.3159 41.2231 14.7138 41.4465 14.9511C41.6838 15.1745 42.0608 15.2862 42.5774 15.2862Z" fill="#0A0A0A"/>
<path d="M53.1171 16.0192C52.4051 16.0192 51.7629 15.7819 51.1904 15.3072C50.632 14.8185 50.1852 14.1553 49.8501 13.3176C49.515 12.4799 49.3475 11.5445 49.3475 10.5113C49.3475 9.47818 49.515 8.54974 49.8501 7.726C50.1852 6.90227 50.639 6.24607 51.2114 5.75742C51.7838 5.26876 52.4191 5.02443 53.1171 5.02443C53.8292 5.02443 54.4644 5.26876 55.0229 5.75742C55.5953 6.24607 56.0491 6.90227 56.3842 7.726C56.7192 8.54974 56.8868 9.47818 56.8868 10.5113C56.8868 11.5445 56.7192 12.4799 56.3842 13.3176C56.063 14.1553 55.6163 14.8185 55.0438 15.3072C54.4714 15.7819 53.8292 16.0192 53.1171 16.0192ZM53.1171 15.4956C54.5691 15.4956 55.2952 13.8342 55.2952 10.5113C55.2952 7.20244 54.5691 5.54799 53.1171 5.54799C51.6651 5.54799 50.9391 7.20244 50.9391 10.5113C50.9391 13.8342 51.6651 15.4956 53.1171 15.4956Z" fill="#0A0A0A"/>
<path d="M61.4355 16.0192C60.7654 16.0192 60.165 15.7958 59.6345 15.349C59.1039 14.9023 58.6781 14.274 58.357 13.4642C58.0498 12.6405 57.8963 11.6911 57.8963 10.6161C57.8963 9.51309 58.0568 8.54276 58.3779 7.70506C58.6991 6.86737 59.1388 6.21117 59.6973 5.73647C60.2558 5.26178 60.8771 5.02443 61.5612 5.02443C62.3849 5.02443 63.0481 5.36649 63.5507 6.05061C64.0673 6.72077 64.3256 7.81675 64.3256 9.33857C64.3256 9.7993 64.1511 10.0297 63.802 10.0297H59.823C59.5437 10.0297 59.4041 10.1902 59.4041 10.5113C59.4041 11.9913 59.6205 13.1012 60.0533 13.8412C60.4861 14.5812 61.0376 14.9511 61.7078 14.9511C62.2383 14.9511 62.6711 14.7627 63.0062 14.3857C63.3413 14.0087 63.6135 13.3735 63.823 12.4799C63.8649 12.3264 63.9556 12.2496 64.0952 12.2496C64.2628 12.2496 64.3256 12.3892 64.2837 12.6684C64.0603 13.911 63.7043 14.7836 63.2156 15.2862C62.727 15.7749 62.1336 16.0192 61.4355 16.0192ZM59.7601 9.50611H61.8753C62.5455 9.50611 62.8806 9.15707 62.8806 8.45899C62.8806 7.55148 62.7689 6.83944 62.5455 6.32286C62.3221 5.80628 61.987 5.54799 61.5402 5.54799C60.9957 5.54799 60.535 5.86213 60.158 6.4904C59.795 7.11867 59.5577 8.01222 59.446 9.17103C59.4181 9.39442 59.5228 9.50611 59.7601 9.50611Z" fill="#0A0A0A"/>
</svg>
