<svg width="32" height="32" viewBox="0 0 32 32" fill="none" xmlns="http://www.w3.org/2000/svg">
<path d="M14.9333 11.1667L19.6 3.16667C21.6222 3.7 23.4169 4.67778 24.984 6.1C26.5511 7.52222 27.6898 9.21111 28.4 11.1667H14.9333ZM11.2333 14.5L6.66664 6.5C7.86664 5.32222 9.26131 4.38889 10.8506 3.7C12.44 3.01111 14.1564 2.66667 16 2.66667C16.2889 2.66667 16.6222 2.68356 17 2.71733C17.3778 2.75111 17.7222 2.78978 18.0333 2.83333L11.2333 14.5ZM3.09997 19.3333C2.96664 18.8 2.86086 18.2556 2.78264 17.7C2.70442 17.1444 2.66575 16.5778 2.66664 16C2.66664 14.4222 2.9222 12.9333 3.43331 11.5333C3.94442 10.1333 4.66664 8.85556 5.59997 7.7L12.3333 19.3333H3.09997ZM12.4333 28.8333C10.4111 28.3 8.61109 27.3222 7.03331 25.9C5.45553 24.4778 4.31109 22.7889 3.59997 20.8333H17.0333L12.4333 28.8333ZM16 29.3333C15.6666 29.3333 15.3275 29.3111 14.9826 29.2667C14.6378 29.2222 14.3102 29.1778 14 29.1333L20.7666 17.5L25.3333 25.5C24.1333 26.6778 22.7391 27.6111 21.1506 28.3C19.5622 28.9889 17.8453 29.3333 16 29.3333ZM26.4 24.3L19.6666 12.6667H28.9C29.0333 13.2 29.1391 13.7444 29.2173 14.3C29.2955 14.8556 29.3342 15.4222 29.3333 16C29.3333 17.5556 29.0613 19.0444 28.5173 20.4667C27.9733 21.8889 27.2675 23.1667 26.4 24.3Z" fill="white"/>
</svg>
