<svg width="28" height="28" viewBox="0 0 28 28" fill="none" xmlns="http://www.w3.org/2000/svg">
<path d="M14.3666 10H23.8666C23.2666 8.46667 22.3502 7.14978 21.1173 6.04934C19.8844 4.94889 18.4675 4.17689 16.8666 3.73333L13.8 9C13.6666 9.22222 13.6666 9.44445 13.8 9.66667C13.9333 9.88889 14.1222 10 14.3666 10ZM9.56663 11.6667C9.69996 11.8889 9.88885 12 10.1333 12C10.3777 12 10.5666 11.8889 10.7 11.6667L15.4666 3.46667C15.2222 3.42222 14.9777 3.38889 14.7333 3.36667C14.4888 3.34445 14.2444 3.33333 14 3.33333C12.5333 3.33333 11.1666 3.61111 9.89996 4.16667C8.63329 4.72222 7.51107 5.46667 6.53329 6.4L9.56663 11.6667ZM3.66663 16.6667H9.76663C10.0111 16.6667 10.2057 16.5556 10.3506 16.3333C10.4955 16.1111 10.5008 15.8889 10.3666 15.6667L5.59996 7.46667C4.88885 8.37778 4.33329 9.38356 3.93329 10.484C3.53329 11.5844 3.33329 12.7564 3.33329 14C3.33329 14.4667 3.36129 14.9169 3.41729 15.3507C3.47329 15.7844 3.5564 16.2231 3.66663 16.6667ZM11.1333 24.2667L14.1666 19C14.3 18.7778 14.2946 18.5556 14.1506 18.3333C14.0066 18.1111 13.812 18 13.5666 18H4.13329C4.73329 19.5333 5.65018 20.8502 6.88396 21.9507C8.11774 23.0511 9.53418 23.8231 11.1333 24.2667ZM14 24.6667C15.4666 24.6667 16.8333 24.3889 18.1 23.8333C19.3666 23.2778 20.4888 22.5333 21.4666 21.6L18.4333 16.3333C18.3 16.1111 18.1111 16 17.8666 16C17.6222 16 17.4333 16.1111 17.3 16.3333L12.5333 24.5333C12.7777 24.5778 13.0168 24.6111 13.2506 24.6333C13.4844 24.6556 13.7342 24.6667 14 24.6667ZM22.4 20.5333C23.1111 19.6222 23.6666 18.6169 24.0666 17.5173C24.4666 16.4178 24.6666 15.2453 24.6666 14C24.6666 13.5333 24.6391 13.0836 24.584 12.6507C24.5288 12.2178 24.4453 11.7787 24.3333 11.3333H18.2333C17.9888 11.3333 17.7946 11.4444 17.6506 11.6667C17.5066 11.8889 17.5008 12.1111 17.6333 12.3333L22.4 20.5333ZM14 27.3333C12.1777 27.3333 10.4555 26.9831 8.83329 26.2827C7.21107 25.5822 5.79463 24.6267 4.58396 23.416C3.37329 22.2053 2.41774 20.7889 1.71729 19.1667C1.01685 17.5444 0.666626 15.8222 0.666626 14C0.666626 12.1556 1.01685 10.428 1.71729 8.81733C2.41774 7.20667 3.37329 5.79556 4.58396 4.584C5.79463 3.37245 7.21107 2.41689 8.83329 1.71733C10.4555 1.01778 12.1777 0.667557 14 0.666668C15.8444 0.666668 17.5724 1.01689 19.184 1.71733C20.7955 2.41778 22.2062 3.37333 23.416 4.584C24.6257 5.79467 25.5813 7.20578 26.2826 8.81733C26.984 10.4289 27.3342 12.1564 27.3333 14C27.3333 15.8222 26.9831 17.5444 26.2826 19.1667C25.5822 20.7889 24.6266 22.2058 23.416 23.4173C22.2053 24.6289 20.7942 25.5844 19.1826 26.284C17.5711 26.9836 15.8435 27.3333 14 27.3333Z" fill="#0A0A0A"/>
</svg>
